<svg width="189" height="36" viewBox="0 0 189 36" fill="none" xmlns="http://www.w3.org/2000/svg">
<g clip-path="url(#clip0_1037_733)">
<mask id="mask0_1037_733" style="mask-type:luminance" maskUnits="userSpaceOnUse" x="0" y="0" width="189" height="36">
<path d="M188.979 0H0V36H188.979V0Z" fill="white"/>
</mask>
<g mask="url(#mask0_1037_733)">
<mask id="mask1_1037_733" style="mask-type:luminance" maskUnits="userSpaceOnUse" x="0" y="0" width="189" height="36">
<path d="M188.98 0H0V36H188.98V0Z" fill="white"/>
</mask>
<g mask="url(#mask1_1037_733)">
<mask id="mask2_1037_733" style="mask-type:luminance" maskUnits="userSpaceOnUse" x="0" y="0" width="189" height="36">
<path d="M188.98 0H0V36H188.98V0Z" fill="white"/>
</mask>
<g mask="url(#mask2_1037_733)">
<path d="M99.0681 14.204C99.9776 13.3113 101.117 12.6882 102.359 12.404C103.271 12.1938 104.217 12.1784 105.135 12.3587C106.053 12.5391 106.923 12.9112 107.687 13.4507C108.452 13.9901 109.094 14.6849 109.572 15.4895C110.049 16.2941 110.352 17.1905 110.459 18.12C110.477 18.3084 110.485 18.4977 110.482 18.687C110.482 21.9943 110.482 25.3017 110.482 28.609C110.482 28.709 110.473 28.809 110.468 28.924H106.71V28.496C106.71 25.3113 106.71 22.1263 106.71 18.941C106.718 18.4551 106.627 17.9726 106.442 17.5234C106.256 17.0742 105.981 16.6677 105.632 16.329C105.402 16.0725 105.119 15.8679 104.804 15.729C104.488 15.5901 104.147 15.5199 103.802 15.5232C103.457 15.5265 103.117 15.6032 102.804 15.7482C102.491 15.8932 102.213 16.1031 101.987 16.364C101.657 16.6964 101.396 17.0913 101.219 17.5257C101.043 17.9601 100.955 18.4252 100.96 18.894C100.968 22.101 100.96 25.308 100.96 28.516V28.926H97.1711V28.55C97.1711 25.354 97.1711 22.158 97.1711 18.962C97.1811 18.4764 97.0916 17.9939 96.9081 17.5441C96.7246 17.0944 96.451 16.687 96.1041 16.347C95.8735 16.0867 95.5896 15.879 95.2717 15.7379C94.9539 15.5968 94.6094 15.5256 94.2617 15.5291C93.9139 15.5326 93.571 15.6107 93.256 15.7582C92.9411 15.9057 92.6614 16.1191 92.4361 16.384C92.107 16.7181 91.8473 17.114 91.6719 17.5489C91.4965 17.9838 91.4089 18.4491 91.4141 18.918C91.4181 22.114 91.4181 25.31 91.4141 28.506V28.927H87.6411V28.511C87.6411 25.259 87.6411 22.0073 87.6411 18.756C87.6506 17.2331 88.1925 15.7615 89.1729 14.5962C90.1532 13.4308 91.5103 12.645 93.0091 12.375C94.0575 12.1639 95.1413 12.209 96.1685 12.5065C97.1957 12.804 98.1359 13.3452 98.9091 14.084C98.9491 14.121 98.9961 14.151 99.0681 14.206" fill="white"/>
<path d="M145.888 13.0359C145.301 13.6729 144.775 14.2429 144.249 14.8119C142.97 16.1919 141.694 17.5759 140.407 18.9479C140.367 18.9793 140.335 19.0187 140.311 19.0636C140.288 19.1086 140.274 19.1579 140.271 19.2085C140.268 19.2591 140.275 19.3098 140.293 19.3573C140.311 19.4047 140.338 19.4479 140.374 19.4839C142.345 22.5166 144.312 25.5533 146.274 28.5939C146.338 28.6939 146.395 28.7939 146.474 28.9329C146.326 28.9399 146.219 28.9489 146.113 28.9489C144.865 28.9489 143.613 28.9419 142.368 28.9559C142.266 28.9643 142.163 28.9422 142.073 28.8924C141.983 28.8426 141.909 28.7673 141.862 28.6759C140.52 26.5746 139.173 24.4769 137.82 22.3829C137.749 22.2729 137.673 22.1679 137.577 22.0289C137.287 22.3399 137.014 22.6289 136.744 22.9219C136.237 23.4689 135.723 24.0099 135.233 24.5719C135.114 24.7103 135.044 24.8838 135.033 25.0659C135.016 26.2239 135.024 27.3819 135.024 28.5409V28.9249H131.224V6.86292H135.004V19.4819C135.155 19.3399 135.241 19.2679 135.317 19.1819C137.126 17.2486 138.933 15.3103 140.738 13.3669C140.835 13.2511 140.958 13.1597 141.097 13.1C141.236 13.0403 141.387 13.0139 141.538 13.0229C142.953 13.0429 144.368 13.0309 145.883 13.0309" fill="white"/>
<path d="M127.448 28.945C126.813 28.945 126.223 28.967 125.636 28.939C125.26 28.9073 124.91 28.738 124.651 28.4635C124.393 28.1891 124.245 27.8288 124.236 27.452C124.223 26.986 124.236 26.519 124.236 26.052L124.148 26.02C124.075 26.12 124.003 26.22 123.929 26.32C123.436 27.0774 122.774 27.71 121.995 28.1677C121.216 28.6253 120.341 28.8956 119.44 28.9572C118.538 29.0188 117.635 28.87 116.801 28.5225C115.967 28.175 115.225 27.6384 114.634 26.955C114.156 26.3588 113.828 25.657 113.677 24.908C113.526 24.1591 113.556 23.385 113.766 22.6502C113.975 21.9154 114.357 21.2414 114.88 20.6845C115.403 20.1276 116.052 19.704 116.772 19.449C117.578 19.1551 118.424 18.9835 119.281 18.94C120.647 18.84 122.013 18.74 123.381 18.659C123.626 18.644 123.717 18.567 123.702 18.322C123.676 17.889 123.694 17.453 123.655 17.022C123.642 16.6104 123.49 16.2152 123.226 15.8997C122.961 15.5842 122.598 15.3667 122.195 15.282C121.394 15.0671 120.549 15.0768 119.753 15.31C119.331 15.4083 118.949 15.6335 118.659 15.9554C118.369 16.2772 118.184 16.6801 118.13 17.11C118.092 17.349 118.005 17.419 117.769 17.417C116.769 17.405 115.766 17.405 114.76 17.417C114.452 17.417 114.379 17.306 114.414 17.017C114.488 16.0644 114.842 15.155 115.432 14.4032C116.021 13.6514 116.82 13.0908 117.728 12.792C119.74 12.0347 121.951 11.9944 123.989 12.678C124.9 12.9488 125.707 13.4906 126.303 14.2314C126.898 14.9723 127.254 15.8769 127.323 16.825C127.406 17.476 127.447 18.1317 127.445 18.788C127.457 22.04 127.45 25.288 127.45 28.544L127.448 28.945ZM123.648 21.518C123.627 21.51 123.606 21.494 123.586 21.496C122.686 21.56 121.786 21.62 120.886 21.696C120.32 21.7241 119.755 21.7822 119.195 21.87C118.673 21.9248 118.192 22.177 117.851 22.5748C117.509 22.9727 117.332 23.4861 117.357 24.01C117.405 24.5032 117.632 24.9616 117.996 25.2977C118.36 25.6338 118.835 25.824 119.331 25.832C119.829 25.8733 120.331 25.8396 120.82 25.732C121.29 25.6569 121.74 25.4858 122.141 25.2292C122.542 24.9726 122.886 24.6362 123.151 24.2408C123.417 23.8454 123.598 23.3995 123.683 22.9311C123.769 22.4626 123.757 21.9816 123.648 21.518Z" fill="white"/>
<path d="M161.364 21.7889H150.712C150.767 22.2079 150.789 22.6029 150.872 22.9889C150.995 23.7035 151.338 24.3618 151.853 24.8723C152.368 25.3828 153.03 25.72 153.745 25.8369C155.295 26.0539 156.427 25.6799 157.104 24.4369C157.13 24.4009 157.15 24.3607 157.163 24.3179C157.235 23.7889 157.59 23.7599 158.028 23.7739C158.897 23.8019 159.766 23.7819 160.636 23.7819H161.057C161.003 24.0249 160.971 24.2279 160.914 24.4239C160.569 25.6203 159.872 26.6852 158.914 27.4804C157.956 28.2756 156.781 28.7642 155.541 28.8829C153.866 29.1475 152.15 28.8463 150.665 28.0269C149.706 27.4636 148.883 26.6936 148.258 25.7729C147.633 24.8521 147.221 23.8038 147.052 22.7039C146.58 20.5425 146.826 18.286 147.752 16.2769C148.282 15.055 149.164 14.0185 150.285 13.2995C151.406 12.5805 152.716 12.2117 154.047 12.2399C155.792 12.1307 157.513 12.6934 158.857 13.8126C160.201 14.9318 161.065 16.5227 161.273 18.2589C161.381 19.3421 161.428 20.4305 161.414 21.5189C161.406 21.6119 161.389 21.7037 161.361 21.7929M157.605 18.9799C157.651 18.3488 157.527 17.717 157.247 17.1497C156.967 16.5823 156.54 16.1002 156.011 15.7529C155.439 15.4057 154.778 15.2323 154.109 15.254C153.439 15.2757 152.791 15.4914 152.242 15.8749C151.744 16.2187 151.341 16.6848 151.074 17.2284C150.807 17.7721 150.684 18.3751 150.717 18.9799H157.605Z" fill="white"/>
<path d="M182.593 14.659C182.593 14.225 182.593 13.791 182.593 13.359C182.593 12.927 182.421 12.759 181.993 12.713C180.618 12.5895 179.321 12.019 178.301 11.0888C177.281 10.1586 176.593 8.91983 176.344 7.56196C176.145 6.59127 176.192 5.58625 176.481 4.63851C176.771 3.69077 177.292 2.83045 177.999 2.13596C178.775 1.24703 179.787 0.596043 180.918 0.258357C182.048 -0.0793283 183.251 -0.0899073 184.388 0.227844C185.524 0.545596 186.548 1.17869 187.339 2.05384C188.131 2.92899 188.658 4.01042 188.861 5.17296C189.038 6.10562 189.02 7.06479 188.809 7.99026C188.598 8.91574 188.197 9.78755 187.633 10.551C186.266 12.474 184.87 14.376 183.488 16.289C183.438 16.3898 183.355 16.4704 183.253 16.5172C183.15 16.564 183.035 16.5742 182.926 16.546C182.653 16.466 182.591 16.246 182.592 15.996C182.592 15.551 182.592 15.105 182.592 14.66" fill="white"/>
<path d="M55.1001 27.5789C52.6351 26.5519 52.4661 23.3699 55.0401 21.9189C54.9831 21.8499 54.93 21.7829 54.874 21.7189C54.0237 20.7411 53.5337 19.5015 53.4857 18.2065C53.4377 16.9115 53.8345 15.6391 54.6101 14.6009C55.0833 14.0049 55.6733 13.5118 56.344 13.1521C57.0146 12.7923 57.7517 12.5734 58.5101 12.5089C60.1299 12.2766 61.7795 12.629 63.163 13.5029C63.4076 12.8543 63.8495 12.2988 64.4264 11.9145C65.0034 11.5302 65.6863 11.3366 66.3791 11.3609V12.7059C66.1491 12.7479 65.917 12.7779 65.693 12.8349C65.2109 12.9515 64.7922 13.2495 64.5241 13.6669C64.1671 14.2089 64.1621 14.3529 64.5321 14.8669C65.0694 15.6275 65.4024 16.5133 65.4992 17.4394C65.596 18.3656 65.4534 19.3011 65.0849 20.1564C64.7165 21.0116 64.1346 21.7579 63.395 22.3237C62.6554 22.8896 61.7829 23.256 60.861 23.3879C59.3647 23.6945 57.8094 23.5115 56.425 22.8659C56.3581 22.8306 56.2824 22.8157 56.2071 22.8229C55.8142 22.9517 55.4647 23.1867 55.1973 23.5019C54.9299 23.8172 54.755 24.2003 54.6921 24.6089C54.6561 25.0144 54.7775 25.4182 55.031 25.7367C55.2845 26.0552 55.6508 26.264 56.0541 26.3199C56.6548 26.4351 57.2645 26.4966 57.8761 26.5039C59.3241 26.5359 60.7761 26.4929 62.2221 26.5479C63.493 26.5499 64.7276 26.9718 65.7341 27.7479C66.2807 28.1798 66.7141 28.7381 66.9972 29.3747C67.2802 30.0113 67.4044 30.7071 67.3589 31.4023C67.3135 32.0974 67.0998 32.7712 66.7363 33.3655C66.3727 33.9598 65.8702 34.4568 65.2721 34.8139C64.287 35.3911 63.1877 35.7461 62.051 35.8539C60.2392 36.1212 58.3932 36.0439 56.6101 35.6259C55.409 35.3766 54.3336 34.7138 53.5711 33.7529C53.2423 33.2949 53.0101 32.7749 52.8885 32.2244C52.7669 31.674 52.7584 31.1045 52.8636 30.5507C52.9688 29.9968 53.1855 29.4701 53.5005 29.0026C53.8155 28.5351 54.2223 28.1364 54.6961 27.8309C54.8261 27.7469 54.9601 27.6689 55.0961 27.5829M59.43 27.9499V28.0079C58.795 28.0079 58.1581 28.0339 57.5241 28.0009C56.8279 27.9764 56.1457 28.2008 55.6001 28.6339C55.2145 28.9002 54.8959 29.2523 54.6693 29.6624C54.4427 30.0725 54.3141 30.5296 54.2938 30.9977C54.2734 31.4658 54.3618 31.9323 54.552 32.3606C54.7422 32.7888 55.0291 33.1672 55.3901 33.4659C55.8674 33.8099 56.4025 34.0656 56.9701 34.2209C58.4968 34.6094 60.0856 34.6906 61.6441 34.4599C62.6715 34.3905 63.6639 34.0582 64.5261 33.4949C64.876 33.2543 65.1677 32.9385 65.3799 32.5706C65.5921 32.2026 65.7193 31.7919 65.7523 31.3685C65.7853 30.9451 65.7232 30.5197 65.5705 30.1233C65.4179 29.727 65.1785 29.3698 64.87 29.0779C64.289 28.5451 63.5476 28.2202 62.762 28.1539C61.656 28.0419 60.5421 28.0129 59.4311 27.9489M59.426 22.1259C59.879 22.0841 60.3294 22.0173 60.775 21.9259C61.4988 21.7922 62.1669 21.4477 62.6956 20.9357C63.2244 20.4237 63.5901 19.767 63.7471 19.0479C63.9632 18.3145 63.9598 17.5339 63.7373 16.8025C63.5148 16.071 63.0829 15.4207 62.495 14.9319C61.8944 14.4351 61.1796 14.0954 60.415 13.9435C59.6504 13.7916 58.86 13.8323 58.115 14.0619C57.4085 14.2008 56.7576 14.542 56.2415 15.0441C55.7254 15.5462 55.3663 16.1875 55.2081 16.8899C54.9847 17.602 54.9676 18.3629 55.159 19.0843C55.3503 19.8057 55.7421 20.4581 56.2891 20.9659C57.1548 21.7275 58.2721 22.1411 59.425 22.1269" fill="white"/>
<path d="M19.8669 15.755C20.1479 15.2719 20.455 14.8046 20.7869 14.355C21.3681 13.651 22.1206 13.1085 22.9721 12.7794C23.8236 12.4503 24.7454 12.3458 25.6489 12.476C26.8891 12.5142 28.0643 13.0394 28.9199 13.938C29.6608 14.7955 30.1107 15.8658 30.2049 16.995C30.2587 17.4597 30.2844 17.9272 30.2819 18.395C30.2879 21.703 30.2879 25.011 30.2819 28.319V28.742H28.6889V28.316C28.6889 24.685 28.6499 21.054 28.7059 17.424C28.7315 16.9811 28.6666 16.5377 28.5153 16.1207C28.364 15.7037 28.1294 15.3218 27.8259 14.9983C27.5223 14.6748 27.1561 14.4165 26.7495 14.239C26.343 14.0615 25.9045 13.9687 25.4609 13.966C22.6609 13.725 21.2349 15.573 20.5849 17.352C20.3066 18.1528 20.1712 18.9963 20.1849 19.844C20.1796 22.684 20.1796 25.524 20.1849 28.364V28.747H18.5709V28.332C18.5709 24.6567 18.5709 20.9813 18.5709 17.306C18.6166 16.5345 18.3711 15.774 17.883 15.1748C17.3949 14.5756 16.6997 14.1813 15.9349 14.07C14.9455 13.7912 13.8886 13.8796 12.9593 14.3188C12.0299 14.758 11.2906 15.5185 10.8779 16.46C10.6102 16.9851 10.4154 17.5442 10.2989 18.122C10.1345 18.9393 10.0418 19.7695 10.0219 20.603C9.98794 23.175 10.0089 25.748 10.0089 28.321V28.743H8.43994V12.876H10.0069V15.505C12.0329 11.138 18.7579 11.634 19.8669 15.753" fill="white"/>
<path d="M46.2342 19.086C46.2072 18.1912 46.1341 17.2983 46.0152 16.411C45.9322 15.9395 45.723 15.4993 45.4097 15.1372C45.0965 14.7752 44.6909 14.5049 44.2362 14.355C43.4568 14.0469 42.623 13.9005 41.7853 13.9246C40.9476 13.9486 40.1236 14.1427 39.3632 14.495C38.8271 14.7255 38.3633 15.0968 38.021 15.5695C37.6788 16.0422 37.4708 16.5987 37.4192 17.18C37.4092 17.257 37.3892 17.332 37.3702 17.426H35.8112C35.8285 16.7504 35.9897 16.0863 36.2842 15.478C36.5667 14.8752 36.9697 14.3368 37.4685 13.8959C37.9673 13.4551 38.5513 13.1212 39.1842 12.915C40.8757 12.3037 42.7214 12.2664 44.4362 12.809C45.3975 13.0575 46.2461 13.6248 46.8433 14.418C47.4405 15.2112 47.7511 16.1835 47.7242 17.176C47.7802 18.967 47.7532 20.761 47.7602 22.554C47.7602 23.601 47.7602 24.648 47.7602 25.695C47.7602 26.804 48.0122 27.145 49.0602 27.443V28.834C47.5672 29.034 46.4242 27.899 46.1702 25.948C46.1292 25.978 46.0862 25.993 46.0702 26.023C45.7075 26.7731 45.1754 27.4286 44.5159 27.9377C43.8564 28.4469 43.0876 28.7959 42.2702 28.957C40.6104 29.4315 38.8306 29.2362 37.3132 28.413C36.7425 28.0852 36.247 27.6412 35.8588 27.1097C35.4705 26.5782 35.1983 25.9711 35.0596 25.3277C34.9209 24.6843 34.9189 24.019 35.0537 23.3747C35.1886 22.7305 35.4572 22.1218 35.8422 21.588C36.6292 20.5811 37.7766 19.9192 39.0422 19.742C40.1472 19.554 41.2752 19.492 42.3942 19.398C43.5942 19.298 44.7942 19.224 45.9942 19.138C46.0482 19.138 46.1012 19.117 46.2462 19.087M46.1462 20.614C46.0878 20.6077 46.029 20.6047 45.9702 20.605C44.1702 20.714 42.3702 20.817 40.5702 20.937C39.6868 20.964 38.8244 21.2126 38.0622 21.66C37.5937 21.9631 37.2118 22.3825 36.9537 22.8772C36.6956 23.3719 36.5702 23.9251 36.5896 24.4827C36.6091 25.0403 36.7727 25.5834 37.0646 26.059C37.3566 26.5345 37.7668 26.9263 38.2552 27.196C38.8599 27.5112 39.5277 27.6862 40.2092 27.708C41.1225 27.809 42.0462 27.6647 42.8852 27.29C43.7241 26.9152 44.448 26.3236 44.9822 25.576C45.6657 24.5924 46.0653 23.4396 46.1372 22.244C46.1812 21.707 46.1452 21.163 46.1452 20.614" fill="white"/>
<path d="M165.046 28.5259V12.6799C165.731 12.6369 166.419 12.6439 167.103 12.7009C167.457 12.7744 167.773 12.9718 167.994 13.2577C168.215 13.5435 168.327 13.899 168.309 14.2599C168.303 14.7295 168.324 15.199 168.374 15.6659C168.489 15.4709 168.592 15.2659 168.719 15.0829C169.163 14.3588 169.765 13.7442 170.479 13.2852C171.194 12.8261 172.003 12.5345 172.846 12.4319C173.435 12.3904 174.026 12.3873 174.616 12.4229C174.7 12.4229 174.852 12.5359 174.853 12.5979C174.867 13.7759 174.863 14.9549 174.863 16.1439C174.321 16.1059 173.804 16.0599 173.286 16.0369C172.734 15.9681 172.174 16.019 171.643 16.1862C171.113 16.3534 170.624 16.6329 170.212 17.0057C169.799 17.3786 169.471 17.836 169.251 18.3468C169.031 18.8576 168.923 19.4098 168.936 19.9659C168.853 22.6659 168.897 25.3739 168.886 28.0779C168.886 28.2199 168.886 28.3619 168.886 28.5249L165.046 28.5259Z" fill="white"/>
<path d="M71.0011 21.1969C70.9877 22.1947 71.1808 23.1844 71.5684 24.1039C71.9559 25.0234 72.5295 25.8528 73.2531 26.5399C75.4181 28.4449 80.0611 28.1189 81.1621 24.1829C81.1771 24.1299 81.1931 24.0779 81.2171 23.9949H82.8601C82.6573 25.1774 82.1085 26.2733 81.2831 27.1439C80.503 27.9537 79.5317 28.5541 78.4586 28.8898C77.3855 29.2256 76.2451 29.2859 75.1426 29.0651C74.0401 28.8444 73.0109 28.3497 72.1497 27.6267C71.2886 26.9037 70.6233 25.9756 70.2151 24.9279C69.5668 23.3456 69.3039 21.6318 69.4481 19.9279C69.4914 18.4878 69.8785 17.079 70.5771 15.8189C71.0378 14.9974 71.6679 14.2831 72.4256 13.7236C73.1833 13.1641 74.0513 12.772 74.9721 12.5734C75.8928 12.3748 76.8453 12.3743 77.7663 12.5718C78.6872 12.7693 79.5557 13.1603 80.3141 13.7189C81.7855 14.8741 82.7596 16.548 83.0371 18.3979C83.1432 19.1571 83.2004 19.9224 83.2081 20.6889C83.2321 21.1889 83.2081 21.1939 82.7201 21.1939H71.0011M81.6011 19.7129C81.4331 17.5449 80.7731 15.6529 78.7911 14.5659C77.9463 14.0708 76.9722 13.8408 75.9951 13.9057C75.0181 13.9706 74.083 14.3275 73.3111 14.9299C72.5721 15.4819 71.9792 16.2061 71.584 17.0396C71.1889 17.873 71.0036 18.7904 71.0441 19.7119L81.6011 19.7129Z" fill="white"/>
<path d="M1.95787 12.875H0.317871V28.743H1.95787V12.875Z" fill="white"/>
<path d="M175.418 28.142C175.415 28.4826 175.311 28.8146 175.119 29.0959C174.927 29.3772 174.656 29.5953 174.34 29.7224C174.024 29.8496 173.677 29.8802 173.344 29.8102C173.01 29.7403 172.705 29.5731 172.467 29.3297C172.229 29.0862 172.068 28.7776 172.006 28.4429C171.943 28.1081 171.981 27.7623 172.115 27.4491C172.249 27.136 172.473 26.8696 172.758 26.6838C173.043 26.4979 173.377 26.4009 173.718 26.405C174.174 26.41 174.609 26.5958 174.928 26.9216C175.246 27.2473 175.423 27.6863 175.418 28.142ZM174.983 28.114C174.983 27.9446 174.949 27.7769 174.883 27.6207C174.818 27.4645 174.721 27.323 174.6 27.2045C174.479 27.086 174.336 26.9928 174.178 26.9303C174.021 26.8679 173.852 26.8376 173.683 26.841C173.429 26.8438 173.181 26.9219 172.971 27.0655C172.761 27.209 172.599 27.4116 172.504 27.6476C172.409 27.8835 172.386 28.1423 172.438 28.3912C172.491 28.6401 172.616 28.8679 172.797 29.0458C172.979 29.2237 173.209 29.3438 173.459 29.3908C173.709 29.4378 173.967 29.4097 174.201 29.3099C174.435 29.2102 174.634 29.0434 174.774 28.8305C174.913 28.6176 174.986 28.3683 174.983 28.114Z" fill="white"/>
<path d="M1.11599 6.69692C1.4053 6.70152 1.68139 6.81882 1.88555 7.02384C2.08972 7.22887 2.20584 7.50545 2.20923 7.79477C2.21262 8.08409 2.103 8.36332 1.90369 8.57307C1.70438 8.78282 1.43111 8.90654 1.14199 8.91792C0.993624 8.92376 0.845592 8.8998 0.706643 8.84745C0.567694 8.79511 0.440647 8.71544 0.33301 8.61316C0.225373 8.51088 0.13933 8.38807 0.0799651 8.25197C0.0206004 8.11587 -0.0108811 7.96926 -0.0126192 7.82079C-0.0143573 7.67231 0.0136834 7.525 0.0698458 7.38755C0.126008 7.2501 0.209153 7.1253 0.314366 7.02053C0.419579 6.91576 0.544726 6.83314 0.682412 6.77756C0.820097 6.72197 0.967528 6.69455 1.11599 6.69692Z" fill="white"/>
<path d="M173.485 28.389L173.452 28.867L173.111 28.8899V27.3209C173.399 27.3036 173.687 27.3059 173.975 27.3279C174.429 27.3919 174.511 27.86 174.16 28.313L174.425 28.848C174.379 28.8763 174.326 28.8932 174.272 28.8972C174.218 28.9012 174.164 28.8922 174.114 28.871C174.064 28.8498 174.019 28.8169 173.985 28.7752C173.95 28.7334 173.926 28.684 173.914 28.6309C173.843 28.4489 173.756 28.276 173.485 28.389ZM173.486 28.1489C173.647 28.0991 173.802 28.032 173.948 27.949C173.968 27.9089 173.978 27.8646 173.977 27.8198C173.976 27.7751 173.964 27.7312 173.943 27.6919C173.796 27.6281 173.643 27.5802 173.487 27.549L173.486 28.1489Z" fill="white"/>
</g>
</g>
</g>
</g>
<defs>
<clipPath id="clip0_1037_733">
<rect width="188.979" height="36" fill="white"/>
</clipPath>
</defs>
</svg>
