<?xml version="1.0" encoding="UTF-8"?>
<svg xmlns="http://www.w3.org/2000/svg" width="141" height="40" viewBox="0 0 141 40" fill="none">
  <g clip-path="url(#clip0_165_3017)">
    <path d="M125.398 39.7362V10.0884H140.489V15.6579H131.918V21.8897H139.706V27.547H131.918V34.2033H140.554V39.7362H125.394H125.398Z" fill="white"></path>
    <path d="M75.1661 39.9997C73.6183 39.9997 72.2972 39.7838 71.2068 39.352C70.1126 38.9202 69.2454 38.2761 68.6013 37.4199C67.9573 36.5636 67.4926 35.5573 67.2071 34.4009C66.9217 33.2446 66.779 31.8797 66.779 30.3098V19.4709C66.779 17.8901 66.9217 16.5215 67.2071 15.3725C67.4926 14.2198 67.9573 13.2208 68.6013 12.3718C69.2454 11.5229 70.1163 10.8825 71.2068 10.458C72.3009 10.0335 73.6219 9.82129 75.1661 9.82129C78.1814 9.82129 80.3441 10.6337 81.6505 12.2547C82.9568 13.8795 83.6082 16.2836 83.6082 19.4709V30.3098C83.6082 33.4971 82.9532 35.9086 81.6505 37.5443C80.3441 39.18 78.1814 39.996 75.1661 39.996V39.9997ZM74.2147 35.1987C74.4782 35.3414 74.7966 35.4109 75.1661 35.4109C75.5357 35.4109 75.8541 35.3414 76.1249 35.206C76.3957 35.0706 76.6006 34.8986 76.747 34.6937C76.8933 34.4887 77.0068 34.218 77.0909 33.8886C77.1751 33.5593 77.2263 33.2482 77.252 32.9592C77.2739 32.6701 77.2849 32.3261 77.2849 31.9236V17.8462C77.2849 17.4583 77.2739 17.118 77.252 16.8289C77.23 16.5398 77.1751 16.2324 77.0909 15.9067C77.0068 15.5811 76.8933 15.3212 76.747 15.12C76.6006 14.9187 76.392 14.7504 76.1249 14.615C75.8541 14.4796 75.5357 14.4101 75.1661 14.4101C74.7966 14.4101 74.4782 14.4796 74.2147 14.615C73.9513 14.7504 73.7463 14.9151 73.6 15.109C73.4536 15.3029 73.3401 15.5701 73.2633 15.9067C73.1865 16.2434 73.1389 16.5471 73.1206 16.8179C73.1023 17.0887 73.095 17.4327 73.095 17.8462V31.9272C73.095 32.3407 73.1023 32.6847 73.1206 32.9628C73.1389 33.2409 73.1865 33.5483 73.2633 33.885C73.3401 34.2216 73.4536 34.4888 73.6 34.69C73.7463 34.8913 73.9513 35.0633 74.2147 35.2023V35.1987Z" fill="white"></path>
    <path d="M108.14 39.7362V10.0884H114.423V34.2435H122.152V39.7325H108.14V39.7362Z" fill="white"></path>
    <path d="M47.5456 39.7362V10.0884H62.6366V15.6579H54.0665V21.8897H61.8536V27.547H54.0665V34.2033H62.7025V39.7362H47.542H47.5456Z" fill="white"></path>
    <path d="M26.7496 10.0884H34.8294C37.2811 10.0884 39.184 10.3043 40.5343 10.7361C41.8846 11.1679 43.019 12.1486 43.9374 13.6709C44.8559 15.1931 45.3134 17.0813 45.3134 19.3318C45.3134 21.5823 44.9438 23.2875 44.2046 24.7C43.4654 26.1162 42.4408 27.1371 41.1308 27.7629C39.8207 28.3923 37.8118 28.7033 35.0965 28.7033H32.9485V39.7252H26.7496V10.0884ZM32.9192 14.8711V23.6388H34.4671C36.1541 23.6388 37.2409 23.2253 37.7276 22.402C38.2143 21.5786 38.4558 20.5065 38.4558 19.1891C38.4558 18.0767 38.2655 17.1728 37.8923 16.4885C37.5153 15.8006 37.0762 15.3615 36.5749 15.1639C36.0736 14.9699 35.371 14.8711 34.4671 14.8711H32.9192Z" fill="white"></path>
    <path d="M87.2527 10.0884H95.3325C97.7842 10.0884 99.6871 10.3043 101.037 10.7361C102.388 11.1679 103.522 12.1486 104.441 13.6709C105.359 15.1931 105.816 17.0813 105.816 19.3318C105.816 21.5823 105.447 23.2875 104.708 24.7C103.968 26.1162 102.944 27.1371 101.634 27.7629C100.324 28.3923 98.3148 28.7033 95.5996 28.7033H93.4516V39.7252H87.2527V10.0884ZM93.4223 14.8711V23.6388H94.9702C96.6572 23.6388 97.744 23.2253 98.2307 22.402C98.7174 21.5786 98.9589 20.5065 98.9589 19.1891C98.9589 18.0767 98.7686 17.1728 98.3953 16.4885C98.0184 15.8006 97.5793 15.3615 97.078 15.1639C96.5767 14.9699 95.8741 14.8711 94.9702 14.8711H93.4223Z" fill="white"></path>
    <path d="M0 39.7293L7.47965 10.0889H11.4683L3.8862 39.7293H0Z" fill="#FFC700"></path>
    <path d="M8.83356 4.59976L9.91306 0L14.0225 0.00365932L12.8698 4.59976H8.83356Z" fill="#FFC700"></path>
    <path d="M29.7648 38.7706C29.3623 38.9755 27.6973 39.733 25.0224 39.733H22.1608C19.5846 39.733 13.898 38.1558 15.563 31.8654L20.2945 13.3859H14.5604L15.4642 10.0925H21.1069L22.4791 4.60352H26.5337L25.0553 10.0925H34.6464L33.8669 13.3859H24.2283L19.9286 30.098C19.8078 30.603 19.6578 31.2141 19.57 31.58C18.732 34.9905 20.1079 37.1312 22.7426 37.3947C24.1734 37.5447 27.2875 37.8667 29.7648 35.3894V38.7742V38.7706Z" fill="#FFC700"></path>
  </g>
  <defs>
    <clipPath id="clip0_165_3017">
      <rect width="141" height="40" fill="white"></rect>
    </clipPath>
  </defs>
</svg>
