<svg width="109" height="109" viewBox="0 0 109 109" fill="none" xmlns="http://www.w3.org/2000/svg">
<g id="Union">
<path fill-rule="evenodd" clip-rule="evenodd" d="M30.4186 14.1531L43.4529 55.1337L30.4186 94.8469H32.4488C35.5162 94.8469 38.1433 92.6499 38.686 89.6309L43.4529 63.1126L51.7971 94.8469H57.2029L65.5292 63.181L70.3101 89.6367C70.8551 92.653 73.481 94.8469 76.5462 94.8469H78.5814L65.5292 54.5L78.5814 14.1531H76.5462C73.481 14.1531 70.8551 16.347 70.3101 19.3633L65.5292 45.819L57.8902 16.7671C57.4852 15.2268 56.0927 14.1531 54.5 14.1531C52.9073 14.1531 51.5148 15.2268 51.1098 16.7671L43.4529 45.8874L38.686 19.3691C38.1433 16.3501 35.5162 14.1531 32.4488 14.1531H30.4186ZM65.5292 54.5L54.4989 84.4646L43.4529 55.1337L54.4989 24.5354L65.5292 54.5Z" fill="#FFAF29"/>
<path fill-rule="evenodd" clip-rule="evenodd" d="M109 54.5C109 84.5995 84.5995 109 54.5 109C24.4005 109 0 84.5995 0 54.5C0 24.4005 24.4005 0 54.5 0C84.5995 0 109 24.4005 109 54.5ZM105.409 54.5C105.409 82.6162 82.6162 105.409 54.5 105.409C26.3838 105.409 3.59109 82.6162 3.59109 54.5C3.59109 26.3838 26.3838 3.59109 54.5 3.59109C82.6162 3.59109 105.409 26.3838 105.409 54.5Z" fill="#FFAF29"/>
</g>
</svg>
