<svg width="62" height="62" viewBox="0 0 62 62" fill="none" xmlns="http://www.w3.org/2000/svg">
<g id="material-symbols:motion-blur">
<path id="Vector" d="M20.6667 43.9167C19.9347 43.9167 19.3207 43.6687 18.8247 43.1727C18.3287 42.6767 18.0816 42.0636 18.0833 41.3334C18.0833 40.6014 18.3313 39.9875 18.8273 39.4915C19.3233 38.9955 19.9364 38.7483 20.6667 38.7501H33.5833C32.9806 38.0181 32.4958 37.2216 32.1289 36.3605C31.7621 35.4994 31.4719 34.5737 31.2583 33.5834H25.8333C25.1014 33.5834 24.4883 33.3354 23.994 32.8394C23.4997 32.3434 23.2517 31.7303 23.25 31.0001C23.25 30.2681 23.498 29.6541 23.994 29.1581C24.49 28.6621 25.1031 28.415 25.8333 28.4167H31.2583C31.4736 27.4264 31.7647 26.5007 32.1315 25.6396C32.4983 24.7785 32.9823 23.982 33.5833 23.2501H10.3333C9.60139 23.2501 8.98742 23.002 8.49142 22.506C7.99542 22.01 7.74828 21.3969 7.75 20.6667C7.75 19.9348 7.998 19.3208 8.494 18.8248C8.99 18.3288 9.60311 18.0817 10.3333 18.0834H43.9167C47.4903 18.0834 50.5369 19.3432 53.0565 21.8628C55.5761 24.3824 56.8351 27.4282 56.8333 31.0001C56.8333 34.5737 55.5735 37.6203 53.0539 40.1399C50.5343 42.6595 47.4886 43.9184 43.9167 43.9167H20.6667ZM43.9167 38.7501C46.0694 38.7501 47.8993 37.9966 49.4062 36.4896C50.9132 34.9827 51.6667 33.1528 51.6667 31.0001C51.6667 28.8473 50.9132 27.0174 49.4062 25.5105C47.8993 24.0035 46.0694 23.2501 43.9167 23.2501C41.7639 23.2501 39.934 24.0035 38.4271 25.5105C36.9201 27.0174 36.1667 28.8473 36.1667 31.0001C36.1667 33.1528 36.9201 34.9827 38.4271 36.4896C39.934 37.9966 41.7639 38.7501 43.9167 38.7501ZM7.75 33.5834C7.01805 33.5834 6.40408 33.3354 5.90808 32.8394C5.41208 32.3434 5.16494 31.7303 5.16667 31.0001C5.16667 30.2681 5.41467 29.6541 5.91067 29.1581C6.40667 28.6621 7.01978 28.415 7.75 28.4167H18.0833C18.8153 28.4167 19.4292 28.6647 19.9252 29.1607C20.4212 29.6567 20.6684 30.2698 20.6667 31.0001C20.6667 31.732 20.4187 32.346 19.9227 32.842C19.4267 33.338 18.8136 33.5851 18.0833 33.5834H7.75ZM10.3333 43.9167C9.60139 43.9167 8.98742 43.6687 8.49142 43.1727C7.99542 42.6767 7.74828 42.0636 7.75 41.3334C7.75 40.6014 7.998 39.9875 8.494 39.4915C8.99 38.9955 9.60311 38.7483 10.3333 38.7501H12.9167C13.6486 38.7501 14.2626 38.9981 14.7586 39.4941C15.2546 39.9901 15.5017 40.6032 15.5 41.3334C15.5 42.0653 15.252 42.6793 14.756 43.1753C14.26 43.6713 13.6469 43.9184 12.9167 43.9167H10.3333Z" fill="white"/>
</g>
</svg>
