<svg width="60" height="60" viewBox="0 0 60 60" fill="none" xmlns="http://www.w3.org/2000/svg">
<g id="ph:video-light">
<path id="Vector" d="M38.2805 25.0781L27.0305 17.5781C26.8186 17.4367 26.5722 17.3556 26.3178 17.3433C26.0633 17.331 25.8103 17.3881 25.5858 17.5084C25.3612 17.6288 25.1736 17.8078 25.0429 18.0265C24.9122 18.2452 24.8434 18.4952 24.8438 18.75V33.75C24.8434 34.0048 24.9122 34.2548 25.0429 34.4735C25.1736 34.6922 25.3612 34.8712 25.5858 34.9916C25.8103 35.1119 26.0633 35.169 26.3178 35.1567C26.5722 35.1444 26.8186 35.0633 27.0305 34.9219L38.2805 27.4219C38.4739 27.2936 38.6325 27.1195 38.7422 26.915C38.852 26.7105 38.9094 26.4821 38.9094 26.25C38.9094 26.0179 38.852 25.7895 38.7422 25.585C38.6325 25.3805 38.4739 25.2064 38.2805 25.0781ZM27.6562 31.1227V21.3773L34.9641 26.25L27.6562 31.1227ZM50.625 9.84375H9.375C8.50476 9.84375 7.67016 10.1895 7.05481 10.8048C6.43945 11.4202 6.09375 12.2548 6.09375 13.125V39.375C6.09375 40.2452 6.43945 41.0798 7.05481 41.6952C7.67016 42.3105 8.50476 42.6562 9.375 42.6562H50.625C51.4952 42.6562 52.3298 42.3105 52.9452 41.6952C53.5605 41.0798 53.9062 40.2452 53.9062 39.375V13.125C53.9062 12.2548 53.5605 11.4202 52.9452 10.8048C52.3298 10.1895 51.4952 9.84375 50.625 9.84375ZM51.0938 39.375C51.0938 39.4993 51.0444 39.6185 50.9565 39.7065C50.8685 39.7944 50.7493 39.8438 50.625 39.8438H9.375C9.25068 39.8438 9.13145 39.7944 9.04354 39.7065C8.95564 39.6185 8.90625 39.4993 8.90625 39.375V13.125C8.90625 13.0007 8.95564 12.8815 9.04354 12.7935C9.13145 12.7056 9.25068 12.6562 9.375 12.6562H50.625C50.7493 12.6562 50.8685 12.7056 50.9565 12.7935C51.0444 12.8815 51.0938 13.0007 51.0938 13.125V39.375ZM53.9062 48.75C53.9062 49.123 53.7581 49.4806 53.4944 49.7444C53.2306 50.0081 52.873 50.1562 52.5 50.1562H7.5C7.12704 50.1562 6.76935 50.0081 6.50563 49.7444C6.24191 49.4806 6.09375 49.123 6.09375 48.75C6.09375 48.377 6.24191 48.0194 6.50563 47.7556C6.76935 47.4919 7.12704 47.3438 7.5 47.3438H52.5C52.873 47.3438 53.2306 47.4919 53.4944 47.7556C53.7581 48.0194 53.9062 48.377 53.9062 48.75Z" fill="white"/>
</g>
</svg>
