<svg width="57" height="57" viewBox="0 0 57 57" fill="none" xmlns="http://www.w3.org/2000/svg">
<g id="ph:desktop">
<path id="Vector" d="M46.3125 8.90625H10.6875C9.27025 8.90625 7.91105 9.46925 6.9089 10.4714C5.90675 11.4735 5.34375 12.8327 5.34375 14.25V39.1875C5.34375 40.6047 5.90675 41.964 6.9089 42.9661C7.91105 43.9683 9.27025 44.5312 10.6875 44.5312H26.7188V48.0938H21.375C20.9026 48.0938 20.4495 48.2814 20.1155 48.6155C19.7814 48.9495 19.5938 49.4026 19.5938 49.875C19.5938 50.3474 19.7814 50.8005 20.1155 51.1345C20.4495 51.4686 20.9026 51.6562 21.375 51.6562H35.625C36.0974 51.6562 36.5505 51.4686 36.8845 51.1345C37.2186 50.8005 37.4062 50.3474 37.4062 49.875C37.4062 49.4026 37.2186 48.9495 36.8845 48.6155C36.5505 48.2814 36.0974 48.0938 35.625 48.0938H30.2812V44.5312H46.3125C47.7298 44.5312 49.089 43.9683 50.0911 42.9661C51.0933 41.964 51.6562 40.6047 51.6562 39.1875V14.25C51.6562 12.8327 51.0933 11.4735 50.0911 10.4714C49.089 9.46925 47.7298 8.90625 46.3125 8.90625ZM10.6875 12.4688H46.3125C46.7849 12.4688 47.238 12.6564 47.572 12.9905C47.9061 13.3245 48.0938 13.7776 48.0938 14.25V32.0625H8.90625V14.25C8.90625 13.7776 9.09392 13.3245 9.42797 12.9905C9.76202 12.6564 10.2151 12.4688 10.6875 12.4688ZM46.3125 40.9688H10.6875C10.2151 40.9688 9.76202 40.7811 9.42797 40.447C9.09392 40.113 8.90625 39.6599 8.90625 39.1875V35.625H48.0938V39.1875C48.0938 39.6599 47.9061 40.113 47.572 40.447C47.238 40.7811 46.7849 40.9688 46.3125 40.9688Z" fill="white"/>
</g>
</svg>
